<svg width="233" height="46" viewBox="0 0 233 46" fill="none" xmlns="http://www.w3.org/2000/svg">
<path d="M15.1639 1.29639C13.8197 2.78471 13.4362 4.49602 13.5953 6.25764C13.8013 8.53927 15.0022 10.8824 16.3875 12.5554C16.6899 12.864 16.9475 12.9348 17.2035 12.9184C17.463 12.9018 17.7427 12.7651 17.9658 12.5377C18.189 12.3104 18.342 12.0024 18.3739 11.7086C18.4057 11.4149 18.3426 11.1388 18.0902 10.8521L18.0549 10.8119L18.0271 10.7663C16.5483 8.34458 14.6142 4.92114 15.1639 1.29639ZM24.2405 1.40357C24.6604 3.94114 23.9154 6.34213 23.0303 8.4357C23.6232 8.9123 24.2304 9.4857 24.8344 10.1185C25.359 8.86958 25.748 7.54136 25.8327 6.24656C25.946 4.51693 25.5648 2.8653 24.2405 1.40357ZM20.0833 8.26686C20.064 8.26668 20.0447 8.26753 20.0255 8.26939C19.6495 8.30664 19.0615 8.55362 18.4057 8.99345C18.6224 9.3723 18.8412 9.73768 19.0551 10.0886C19.4944 10.6147 19.6604 11.2574 19.5971 11.8414C19.5317 12.4437 19.2496 12.9864 18.8438 13.3998C18.438 13.8132 17.8949 14.1071 17.2822 14.1464C16.6694 14.1857 16.0083 13.9375 15.4891 13.3986L15.4734 13.3825L15.4591 13.3652C15.2501 13.1135 15.0495 12.855 14.8577 12.5899C14.2534 13.4166 13.699 14.3106 13.2422 15.2208C13.6019 15.1918 13.9098 15.167 14.3767 15.129C15.9041 15.005 17.9281 14.8395 19.9481 14.674C23.2589 14.4028 25.4729 14.2207 26.5559 14.1316C25.8068 13.093 24.9675 12.0592 24.1237 11.1566C23.2801 10.2544 22.4315 9.48194 21.6904 8.9674C20.9956 8.48499 20.3924 8.26856 20.0833 8.26686ZM19.0551 10.0886C19.0414 10.0722 19.0283 10.0554 19.014 10.0393L19.0771 10.1251C19.0699 10.1132 19.0624 10.1005 19.0551 10.0886ZM27.3589 15.3001C26.7095 15.3535 23.7115 15.6002 20.0486 15.9004C18.1912 16.0527 16.3338 16.2044 14.4763 16.3555C13.7339 16.4158 13.1224 16.4653 12.6716 16.5014C12.533 16.8574 12.4114 17.2123 12.312 17.5628L27.9876 16.3138C27.7862 15.971 27.5766 15.6329 27.3589 15.3001ZM19.5515 18.1215L12.1509 18.7946C10.3537 21.738 8.50241 24.1813 4.33126 25.9015C4.32374 26.6458 4.47475 27.2753 4.76979 27.8423C6.05535 27.6173 7.25192 27.3211 8.39434 26.9815C7.55099 27.7217 6.67729 28.4359 5.69107 29.0535C5.97653 29.3343 6.30329 29.603 6.66532 29.8627C8.49968 28.9535 10.9789 27.5795 12.0274 26.8694L7.89757 30.6416C8.26384 30.8496 8.65014 31.0532 9.05216 31.255C9.75968 30.9404 10.4084 30.5867 10.917 30.1397C10.7581 30.7294 10.5156 31.2857 10.2254 31.8229C10.6022 31.9997 10.9796 32.1752 11.3576 32.3494C12.9741 31.2642 14.6904 29.9358 15.8396 28.9854C15.2544 30.1471 14.0969 31.7573 12.9647 33.1012C13.3726 33.2962 13.7816 33.496 14.1885 33.7039C16.0697 32.0954 17.1536 31.0607 18.3609 30.3608C19.4781 29.713 20.7448 29.366 22.783 29.0376C20.6363 25.5404 19.3019 22.3492 19.5514 18.1213L19.5515 18.1215ZM27.798 18.2954C27.3633 18.4647 26.9282 18.6329 26.4926 18.7999C26.1154 18.945 25.7374 19.0882 25.3587 19.2293C25.2972 19.2521 25.256 19.2664 25.2008 19.2866C25.485 19.7555 25.7156 20.2442 25.8416 20.7295C25.8515 20.7679 25.8599 20.8067 25.868 20.8454L27.0588 20.8691C28.2374 20.8926 28.7777 20.7215 29.1836 20.4863C28.8544 19.7992 28.3313 19.0085 27.798 18.2954ZM20.7469 19.0382C20.7389 19.9096 20.8035 20.7299 20.9358 21.518C21.0561 21.6362 21.2289 21.7734 21.4479 21.909C22.1076 22.3172 23.1482 22.7184 24.2387 23.0092C24.2971 23.0248 24.3562 23.0388 24.4148 23.0538C24.4396 22.9628 24.4643 22.869 24.4883 22.7708C24.646 22.1249 24.7269 21.3325 24.6507 21.0388C24.5223 20.5449 24.1201 19.8415 23.6521 19.2074L20.7469 19.0382ZM25.8885 20.9559C26.006 21.6645 25.8423 22.4123 25.6837 23.0625L25.6803 23.0756C26.0523 22.742 26.4033 22.4235 26.7468 22.113L25.8885 20.9559ZM28.5151 22.1946C27.0909 23.4274 25.2074 25.3598 22.9323 26.8779C23.0365 27.0663 23.1425 27.2536 23.2505 27.4399C23.7841 27.341 24.3117 27.2119 24.8307 27.0532C26.799 26.4492 28.6008 25.4043 29.4874 24.1608C29.4772 23.7427 29.3946 23.2719 29.2148 22.9042C29.051 22.5691 28.8402 22.3308 28.5151 22.1946ZM21.3455 23.2548C21.6046 24.1034 21.9435 24.931 22.3517 25.7656C23.0221 25.3061 23.6676 24.8035 24.2835 24.2899C24.1626 24.2605 24.042 24.2299 23.9218 24.1981C22.9893 23.9496 22.0938 23.6342 21.3455 23.2548ZM29.0684 26.3325C27.9736 27.1717 26.6046 27.7961 25.1917 28.2296C24.7748 28.3576 24.3531 28.469 23.9274 28.5637C24.0528 28.766 24.1795 28.9676 24.3074 29.1683L24.8209 29.9732L23.8758 30.1083C22.8338 30.2572 22.0182 30.3969 21.3417 30.5513C21.6737 31.0841 21.962 31.6248 22.3003 32.0612C22.705 32.5834 23.1423 32.9527 23.8783 33.0997C24.4053 33.205 24.9055 33.2816 25.3791 33.3339C24.6701 32.1394 24.0933 31.0434 24.2379 31.0145C24.9532 31.869 25.7163 32.6835 26.5774 33.4164C26.9896 33.4261 27.3745 33.4144 27.7309 33.3841C27.2833 32.6528 26.9728 31.8774 27.5026 30.8704C27.5579 31.3166 28.3778 32.2781 29.2036 33.1093C29.9334 32.8778 30.4054 32.5413 30.6691 32.192C30.5346 31.7406 30.4471 31.3201 30.3258 30.9679C30.1745 30.5286 29.9784 30.165 29.4752 29.7698L29.1958 29.5504L29.2462 29.1986C29.3768 28.289 29.2489 27.3326 29.0684 26.3325Z" fill="#7A89E9"/>
<path d="M43.566 18.31V21.118H40.182V31H36.654V21.118H33.306V18.31H43.566ZM54.5193 25.834C54.5193 26.11 54.5013 26.386 54.4653 26.662H47.7873C47.8233 27.214 47.9733 27.628 48.2373 27.904C48.5133 28.168 48.8613 28.3 49.2813 28.3C49.8693 28.3 50.2893 28.036 50.5413 27.508H54.3033C54.1473 28.204 53.8413 28.828 53.3853 29.38C52.9413 29.92 52.3773 30.346 51.6933 30.658C51.0093 30.97 50.2533 31.126 49.4253 31.126C48.4293 31.126 47.5413 30.916 46.7613 30.496C45.9933 30.076 45.3873 29.476 44.9433 28.696C44.5113 27.916 44.2953 26.998 44.2953 25.942C44.2953 24.886 44.5113 23.974 44.9433 23.206C45.3753 22.426 45.9753 21.826 46.7433 21.406C47.5233 20.986 48.4173 20.776 49.4253 20.776C50.4213 20.776 51.3033 20.98 52.0713 21.388C52.8393 21.796 53.4393 22.384 53.8713 23.152C54.3033 23.908 54.5193 24.802 54.5193 25.834ZM50.9193 24.952C50.9193 24.52 50.7753 24.184 50.4873 23.944C50.1993 23.692 49.8393 23.566 49.4073 23.566C48.9753 23.566 48.6213 23.686 48.3453 23.926C48.0693 24.154 47.8893 24.496 47.8053 24.952H50.9193ZM55.3871 25.942C55.3871 24.898 55.6031 23.986 56.0351 23.206C56.4671 22.426 57.0671 21.826 57.8351 21.406C58.6151 20.986 59.5031 20.776 60.4991 20.776C61.7831 20.776 62.8631 21.13 63.7391 21.838C64.6151 22.534 65.1791 23.512 65.4311 24.772H61.6871C61.4711 24.112 61.0511 23.782 60.4271 23.782C59.9831 23.782 59.6291 23.968 59.3651 24.34C59.1131 24.7 58.9871 25.234 58.9871 25.942C58.9871 26.65 59.1131 27.19 59.3651 27.562C59.6291 27.934 59.9831 28.12 60.4271 28.12C61.0631 28.12 61.4831 27.79 61.6871 27.13H65.4311C65.1791 28.378 64.6151 29.356 63.7391 30.064C62.8631 30.772 61.7831 31.126 60.4991 31.126C59.5031 31.126 58.6151 30.916 57.8351 30.496C57.0671 30.076 56.4671 29.476 56.0351 28.696C55.6031 27.916 55.3871 26.998 55.3871 25.942ZM73.5387 20.812C74.6907 20.812 75.6027 21.202 76.2747 21.982C76.9587 22.75 77.3007 23.794 77.3007 25.114V31H73.7727V25.582C73.7727 25.006 73.6227 24.556 73.3227 24.232C73.0227 23.896 72.6207 23.728 72.1167 23.728C71.5887 23.728 71.1747 23.896 70.8747 24.232C70.5747 24.556 70.4247 25.006 70.4247 25.582V31H66.8967V17.68H70.4247V22.342C70.7367 21.886 71.1567 21.52 71.6847 21.244C72.2247 20.956 72.8427 20.812 73.5387 20.812Z" fill="#7A89E9"/>
<path d="M87.0305 23.296V26.23H78.8765V23.296H87.0305ZM99.2008 18.31V21.118H95.8168V31H92.2888V21.118H88.9408V18.31H99.2008ZM102.288 19.966C101.664 19.966 101.16 19.798 100.776 19.462C100.404 19.114 100.218 18.682 100.218 18.166C100.218 17.638 100.404 17.2 100.776 16.852C101.16 16.504 101.664 16.33 102.288 16.33C102.9 16.33 103.392 16.504 103.764 16.852C104.148 17.2 104.34 17.638 104.34 18.166C104.34 18.682 104.148 19.114 103.764 19.462C103.392 19.798 102.9 19.966 102.288 19.966ZM104.034 20.902V31H100.506V20.902H104.034ZM112.001 27.994V31H110.471C107.891 31 106.601 29.722 106.601 27.166V23.836H105.359V20.902H106.601V18.454H110.147V20.902H111.983V23.836H110.147V27.22C110.147 27.496 110.207 27.694 110.327 27.814C110.459 27.934 110.675 27.994 110.975 27.994H112.001ZM113.043 25.942C113.043 24.898 113.229 23.986 113.601 23.206C113.985 22.426 114.501 21.826 115.149 21.406C115.809 20.986 116.541 20.776 117.345 20.776C118.041 20.776 118.641 20.914 119.145 21.19C119.649 21.466 120.039 21.838 120.315 22.306V20.902H123.843V31H120.315V29.596C120.039 30.064 119.643 30.436 119.127 30.712C118.623 30.988 118.029 31.126 117.345 31.126C116.541 31.126 115.809 30.916 115.149 30.496C114.501 30.076 113.985 29.476 113.601 28.696C113.229 27.904 113.043 26.986 113.043 25.942ZM120.315 25.942C120.315 25.294 120.135 24.784 119.775 24.412C119.427 24.04 118.995 23.854 118.479 23.854C117.951 23.854 117.513 24.04 117.165 24.412C116.817 24.772 116.643 25.282 116.643 25.942C116.643 26.59 116.817 27.106 117.165 27.49C117.513 27.862 117.951 28.048 118.479 28.048C118.995 28.048 119.427 27.862 119.775 27.49C120.135 27.118 120.315 26.602 120.315 25.942ZM132.46 20.812C133.624 20.812 134.548 21.202 135.232 21.982C135.916 22.75 136.258 23.794 136.258 25.114V31H132.73V25.582C132.73 25.006 132.58 24.556 132.28 24.232C131.98 23.896 131.578 23.728 131.074 23.728C130.546 23.728 130.132 23.896 129.832 24.232C129.532 24.556 129.382 25.006 129.382 25.582V31H125.854V20.902H129.382V22.342C129.694 21.886 130.114 21.52 130.642 21.244C131.17 20.956 131.776 20.812 132.46 20.812ZM142.496 31.126C141.584 31.126 140.768 30.976 140.048 30.676C139.34 30.364 138.776 29.944 138.356 29.416C137.948 28.876 137.72 28.27 137.672 27.598H141.092C141.14 27.922 141.29 28.174 141.542 28.354C141.794 28.534 142.106 28.624 142.478 28.624C142.766 28.624 142.994 28.564 143.162 28.444C143.33 28.324 143.414 28.168 143.414 27.976C143.414 27.724 143.276 27.538 143 27.418C142.724 27.298 142.268 27.166 141.632 27.022C140.912 26.878 140.312 26.716 139.832 26.536C139.352 26.356 138.932 26.062 138.572 25.654C138.224 25.246 138.05 24.694 138.05 23.998C138.05 23.398 138.212 22.858 138.536 22.378C138.86 21.886 139.334 21.496 139.958 21.208C140.594 20.92 141.356 20.776 142.244 20.776C143.564 20.776 144.602 21.1 145.358 21.748C146.114 22.396 146.552 23.248 146.672 24.304H143.486C143.426 23.98 143.282 23.734 143.054 23.566C142.838 23.386 142.544 23.296 142.172 23.296C141.884 23.296 141.662 23.35 141.506 23.458C141.362 23.566 141.29 23.716 141.29 23.908C141.29 24.148 141.428 24.334 141.704 24.466C141.98 24.586 142.424 24.712 143.036 24.844C143.768 25 144.374 25.174 144.854 25.366C145.346 25.558 145.772 25.87 146.132 26.302C146.504 26.722 146.69 27.298 146.69 28.03C146.69 28.618 146.516 29.146 146.168 29.614C145.832 30.082 145.346 30.454 144.71 30.73C144.086 30.994 143.348 31.126 142.496 31.126Z" fill="black"/>
</svg>
